<svg version="1" xmlns="http://www.w3.org/2000/svg" width="800" height="800" viewBox="0 0 600.000000 600.000000"><path d="M314.5 14.5C292.8 21.8 280.8 45.6 288 67c4.8 14.2 12.9 22.6 29.9 31 16.7 8.4 43.2 21 43.8 21 .3 0 1.7.9 3.1 1.9 1.5 1 3 1.9 3.4 2 .9.1 15.9 7.3 40.3 19.1l17 8.3-3 1.3c-1.6.7-6.1 2.7-10 4.4-11.7 5.2-52.3 25.9-63.5 32.3-20.2 11.6-63.4 39.3-71.5 45.9-.5.4-8 6-16.5 12.5-72.7 54.7-140.2 125.7-189.6 199.8-19.6 29.3-38.9 62.2-50.5 86-4.1 8.4-4.4 9.5-4.4 17 .1 6.6.6 9 2.9 13.9 3.8 8 14.1 17.8 20.1 19.2 11.2 2.6 16.6 2.3 24.3-1.3 4.8-2.2 14.5-10.3 12.5-10.3-.4 0-.3-.4.3-.8s2.6-3.4 4.4-6.7c1.8-3.3 3.9-6.8 4.8-7.8.8-.9 1.1-1.7.6-1.7-.5 0-.4-.4.2-.8.6-.4 2-2.3 3-4.2 3.6-6.6 12.5-20.2 13.9-21.2.6-.4.6-.8.2-.8-.8 0 4-7 5.8-8.2.5-.4.7-.8.3-.8-.7 0 2.9-5.3 12-17.9.9-1.3 2.3-3 3-3.7.6-.7 1.2-1.6 1.2-2 0-.4 1.6-2.6 3.5-5 1.9-2.3 3.5-4.7 3.5-5.2 0-.6.3-1.2.8-1.4.7-.3 2.8-2.9 8.2-9.8 2.8-3.7 8.3-10.5 10.8-13.5 9.1-11 12.7-15.3 14.4-16.8 1.1-.9 1.8-1.7 1.5-1.7-.3 0 2-2.7 5.1-6.1 3.1-3.4 7.4-8 9.5-10.3 13.6-14.6 35.9-36.4 49.7-48.6 4.1-3.6 8.1-7.2 9-8 2.7-2.6 18.2-15.3 25.5-21 3.9-3 7.5-5.9 8.1-6.5.6-.5 2.2-1.7 3.4-2.5 1.2-.8 3.2-2.3 4.4-3.2 9.8-8.1 42.7-30.3 63.3-42.7 23.1-13.9 61-34.1 63.9-34.1.8 0 1.4-.5 1.4-1 0-.6.5-1 1.1-1 1.2 0 3-.8 14.4-6 14.1-6.5 22.5-9.9 22.5-9.1 0 .5-6 13.2-13.4 28.3-7.3 15-16.1 33.1-19.6 40.3-3.4 7.1-9.4 19.2-13.2 27-8.1 16.5-9.8 21.7-9.8 29.9.1 15.4 7.3 28.8 20.7 38.3 12.4 8.8 31.7 9.5 45.1 1.7 5.9-3.5 13.2-11.1 16.2-17 1.4-2.7 2.7-5.1 3-5.4.3-.3.6-1.4.8-2.4.2-1 1-2.5 1.8-3.3.8-.8 1.4-2.1 1.4-3 0-.8.8-2.7 1.9-4.1 1-1.5 2.6-4.8 3.6-7.4 1-2.7 2.2-4.8 2.6-4.8.5 0 .9-.9.9-1.9 0-1.1.5-2.3 1-2.6.6-.4.8-1.1.5-1.6-.4-.5-.2-.9.2-.9.9 0 3.7-5.9 3.4-7.3 0-.4.4-.7.9-.7s.9-.3.8-.8c-.1-.7 17.3-37.3 19.2-40.2.6-.8 1.5-2.6 2-4 .6-1.4 2.4-5.1 4-8.3 1.7-3.1 2.8-5.7 2.4-5.7-.4 0 0-.8.9-1.8 1-1 1.4-2.2 1-2.5-.3-.4-.2-.7.4-.7.6 0 1.4-1 1.8-2.3 1-2.9.8-2.5 3.6-8.2 1.3-2.8 2.7-5.2 3.2-5.3.4-.2.5-.8.1-1.3-.3-.5 0-.9.7-.9s.9-.3.6-.7c-.4-.3-.2-1.2.4-2 .6-.7.8-1.3.3-1.3s-.4-.4.1-.8c1.3-.9 5.5-9.3 5.5-11 0-.6.5-1.2 1-1.2.6 0 1-.4 1-1 0-1.6 10.3-22.4 11.4-23.2.6-.4.8-.8.3-.8-.4 0 .9-3.3 3-7.3 2-3.9 3.6-7.5 3.5-8-.1-.4.2-.7.8-.7.6 0 1-.3.9-.8-.2-1.6 1.4-5.2 2.4-5.2.6 0 .8-.3.4-.6-.3-.3.3-2.1 1.4-4 1-1.9 1.9-4.1 1.9-4.9 0-.8.4-1.5.9-1.5.8 0 3.3-5.7 2.8-6.3-.1-.1.8-1.6 1.9-3.2 1.2-1.7 2.5-4.4 2.9-6 .5-1.7.9-3.3 1-3.8l.5-1c.2-.2.7-4.4 1-8.7.1-1.4-.1-3.9-.4-5.5-.3-1.7-.7-3.7-.9-4.5-.8-4.4-6.6-13.9-11.8-19.5-4.5-4.8-7.9-7.2-14.6-10.5-25.4-12.5-59.2-28.9-69.8-34-15.1-7.3-39.4-19-59.5-28.8-8.5-4.1-22.7-11-31.5-15.2-8.8-4.3-24.1-11.7-33.9-16.4-9.9-4.8-20.5-9.4-23.5-10.2-7.4-1.9-15.8-1.6-23.6 1.1z"/></svg>